<?xml version="1.0" standalone="no"?>
<!DOCTYPE svg PUBLIC "-//W3C//DTD SVG 20010904//EN"
 "http://www.w3.org/TR/2001/REC-SVG-20010904/DTD/svg10.dtd">
<svg version="1.0" xmlns="http://www.w3.org/2000/svg"
 width="601.000000pt" height="601.000000pt" viewBox="0 0 601.000000 601.000000"
 preserveAspectRatio="xMidYMid meet">
<metadata>
Created by potrace 1.11, written by Peter Selinger 2001-2013
</metadata>
<g transform="translate(0.000000,601.000000) scale(0.100000,-0.100000)"
fill="#000000" stroke="none">
<path d="M3181 5984 c-28 -20 -40 -52 -46 -121 -2 -29 -7 -64 -11 -76 -9 -29
-41 -70 -47 -60 -2 4 -15 59 -27 121 -13 61 -26 112 -29 112 -4 0 -17 -57 -30
-127 -26 -139 -35 -169 -44 -137 -3 10 -8 35 -11 55 -4 20 -22 54 -41 76 -39
46 -53 77 -50 111 1 19 0 21 -12 10 -26 -27 -22 -106 9 -163 10 -17 13 -113 4
-122 -2 -2 -36 45 -76 104 -40 60 -79 115 -87 123 -13 13 -14 13 -9 -5 6 -22
24 -111 32 -165 3 -19 10 -53 15 -75 11 -51 11 -55 0 -55 -5 0 -20 19 -34 42
-18 31 -41 51 -83 73 -42 22 -65 41 -81 70 -17 31 -23 35 -23 19 0 -51 15 -88
55 -132 38 -42 75 -108 75 -133 0 -11 -17 -1 -159 94 -57 38 -101 62 -98 54 3
-9 40 -68 81 -131 42 -64 76 -121 76 -127 0 -6 -21 5 -47 24 -32 23 -65 37
-98 42 -52 8 -98 27 -127 53 -22 19 -23 10 -2 -31 22 -43 43 -62 86 -76 20 -7
55 -31 77 -54 38 -39 54 -66 31 -52 -18 11 -283 94 -274 86 5 -5 43 -31 84
-59 41 -27 98 -67 125 -87 l50 -37 -40 7 c-22 4 -53 9 -68 12 -16 2 -47 -3
-70 -12 -48 -19 -106 -22 -135 -6 -18 10 -21 9 -16 -4 11 -27 68 -53 134 -60
36 -3 85 -16 110 -28 l44 -21 -137 -26 c-75 -15 -140 -29 -143 -32 -3 -3 23
-11 58 -17 35 -6 74 -13 88 -16 13 -2 40 -7 60 -10 48 -7 98 -23 80 -25 -87
-10 -116 -19 -141 -46 -34 -36 -76 -56 -118 -56 l-36 0 39 -20 c22 -11 57 -21
78 -21 l38 -1 -27 -28 -28 -29 -8 26 c-5 14 -12 25 -17 25 -15 0 -137 -126
-155 -160 l-17 -34 -15 27 c-13 26 -33 37 -33 19 0 -5 -25 -37 -54 -71 -30
-35 -58 -77 -62 -95 l-7 -31 -9 25 c-9 23 -11 24 -21 7 -7 -11 -34 -53 -62
-95 -47 -73 -50 -80 -49 -142 0 -36 3 -83 7 -105 l6 -40 -11 39 c-14 43 -62
101 -78 91 -16 -10 -80 -147 -80 -172 0 -20 -2 -22 -20 -11 -10 7 -21 10 -23
8 -2 -3 -18 -43 -34 -90 -32 -90 -34 -131 -9 -180 l15 -31 -30 26 c-17 14 -34
25 -37 25 -7 0 -52 -155 -52 -177 0 -6 -12 -13 -27 -15 -18 -2 -27 -8 -25 -17
2 -7 -2 -37 -8 -66 -21 -100 -21 -129 -2 -167 l19 -36 -28 21 c-16 11 -31 19
-33 16 -2 -2 -6 -24 -9 -49 -3 -25 -10 -60 -17 -78 -7 -18 -10 -46 -8 -62 5
-34 5 -34 -24 -19 -20 11 -21 10 -14 -32 4 -24 10 -64 13 -89 9 -80 38 -131
96 -171 62 -44 105 -110 83 -128 -12 -10 -16 -8 -21 10 -11 32 -99 118 -140
135 -49 20 -55 18 -45 -13 5 -16 14 -62 19 -104 6 -42 15 -89 21 -104 9 -24 8
-26 -7 -20 -21 9 -55 14 -64 9 -13 -7 52 -200 81 -242 17 -23 25 -42 18 -41
-7 1 -24 1 -37 0 -19 -1 -22 -5 -17 -23 4 -13 11 -52 17 -87 5 -35 12 -74 15
-87 5 -18 2 -24 -9 -24 -9 0 -18 -4 -21 -9 -10 -15 61 -175 93 -210 34 -38 37
-43 19 -36 -22 8 -43 -11 -31 -27 6 -7 24 -48 41 -91 26 -68 28 -78 14 -86
-13 -8 -11 -14 15 -47 16 -22 36 -50 42 -62 7 -13 29 -41 48 -63 32 -35 33
-39 14 -39 -11 0 -21 -4 -21 -9 0 -5 29 -45 64 -89 63 -79 64 -80 41 -90 -23
-11 -21 -13 53 -91 42 -45 84 -81 92 -82 8 0 2 -6 -13 -13 l-28 -12 22 -20
c12 -10 32 -40 45 -66 13 -26 33 -53 45 -62 12 -8 18 -19 14 -25 -3 -6 -1 -11
4 -11 6 0 37 -26 69 -58 108 -107 149 -129 257 -137 46 -4 64 -11 92 -35 90
-80 290 -186 443 -235 47 -16 105 -38 130 -50 25 -13 60 -26 78 -30 26 -5 37
-15 48 -41 18 -43 18 -44 -9 -75 -52 -61 -151 -105 -285 -129 -39 -7 -72 -17
-72 -21 0 -18 119 -120 152 -130 82 -26 194 34 262 140 22 34 41 61 42 61 2 0
14 -5 28 -11 20 -9 29 -9 41 1 18 15 17 16 43 -35 61 -119 197 -190 288 -149
21 9 45 18 53 20 19 4 113 101 104 107 -5 3 -26 8 -48 11 -131 21 -227 60
-285 115 -74 71 -50 115 85 156 199 61 426 165 592 271 36 23 66 34 91 34 53
1 105 27 199 103 46 36 88 67 95 70 9 3 7 9 -7 21 -11 8 -14 16 -8 16 15 0
163 138 163 151 0 5 -8 9 -17 9 -14 0 -12 5 9 27 14 16 28 39 31 53 4 14 20
40 37 57 17 17 27 34 21 37 -5 3 3 19 17 35 15 15 40 52 56 82 16 30 34 57 40
62 7 4 2 9 -12 13 l-23 7 25 17 c27 17 85 88 86 104 0 4 14 25 30 47 28 34 29
38 10 34 -23 -5 -26 7 -5 25 13 11 65 162 65 189 0 6 -12 14 -26 17 l-26 7 32
29 c21 19 44 60 70 126 35 91 37 98 20 107 -16 9 -17 13 -5 28 7 10 11 29 9
43 -11 62 -11 91 2 127 18 50 19 47 -16 47 l-30 0 24 38 c14 20 35 73 47 117
12 44 25 88 31 98 7 14 4 17 -15 17 -36 0 -98 -34 -149 -83 -27 -25 -48 -42
-48 -37 0 4 29 33 65 65 75 65 91 97 100 192 3 37 9 79 12 92 5 22 4 23 -22
17 -48 -12 -88 -44 -152 -121 -30 -35 -20 -14 14 32 13 18 44 46 68 63 25 17
52 45 61 62 16 30 47 216 38 229 -2 4 -13 5 -24 2 -18 -5 -20 0 -21 38 0 24
-2 54 -5 67 -2 12 -6 32 -8 45 -3 12 -5 34 -5 50 -1 18 -6 27 -18 27 -23 0
-95 -80 -118 -130 -22 -48 -35 -51 -35 -9 0 22 11 42 41 72 74 76 80 99 64
270 -7 79 -10 88 -27 84 -12 -3 -18 0 -18 11 0 8 -11 43 -24 76 -13 34 -26 69
-30 79 -6 17 -8 17 -37 -4 -31 -22 -79 -109 -82 -149 -1 -21 -12 -26 -21 -11
-9 13 14 73 40 104 39 47 50 122 29 202 -3 11 -10 44 -16 73 -12 54 -18 59
-49 42 -16 -8 -19 -5 -26 23 -3 17 -17 55 -29 82 -13 28 -26 60 -30 73 -3 12
-10 22 -15 22 -11 0 -70 -59 -70 -71 0 -5 -5 -9 -11 -9 -7 0 -8 7 -4 18 23 53
1 148 -54 237 -20 33 -40 68 -44 78 -10 27 -25 20 -45 -20 l-19 -37 -13 38
c-15 46 -25 66 -70 134 -31 49 -35 52 -48 35 -7 -10 -15 -28 -19 -40 -6 -26
-23 -31 -23 -7 0 16 -29 85 -40 94 -3 3 -24 28 -47 55 l-41 51 51 18 c29 11
48 20 42 22 -5 1 -27 5 -48 9 -25 4 -54 20 -80 44 -31 28 -54 40 -86 44 -96
12 -57 30 177 78 28 6 52 15 52 20 0 5 -3 8 -7 7 -8 -3 -112 16 -218 38 -33 7
-51 13 -40 13 15 1 17 3 7 10 -9 5 3 10 35 15 36 4 57 14 77 35 16 16 52 36
83 46 l56 18 -29 12 c-37 15 -67 13 -131 -9 -30 -10 -72 -16 -100 -14 l-48 3
125 78 c68 42 119 77 113 77 -6 0 -71 -13 -145 -30 -73 -16 -139 -30 -147 -30
-21 0 3 25 55 55 27 16 46 35 50 50 3 14 27 43 52 65 38 34 41 40 23 40 -31 0
-86 -25 -140 -63 -45 -33 -110 -62 -119 -52 -2 2 11 28 30 57 62 94 128 198
128 202 0 3 -57 -33 -127 -80 -118 -78 -164 -94 -115 -41 29 32 42 62 48 109
3 24 16 64 28 91 23 47 23 47 2 41 -36 -11 -58 -37 -89 -104 -16 -36 -41 -75
-55 -87 -26 -22 -48 -30 -39 -15 3 4 8 25 11 47 3 22 8 51 11 65 12 60 16 77
21 110 3 19 7 43 10 53 11 35 -6 14 -88 -113 -45 -71 -87 -130 -92 -130 -4 0
-5 15 -1 33 9 42 9 110 0 168 -5 30 -3 54 5 68 15 30 9 34 -19 15z m-165 -324
c-5 -27 -12 -48 -14 -46 -6 7 10 96 17 96 4 0 3 -22 -3 -50z m-231 -75 c8 -69
0 -73 -9 -5 -4 25 -9 59 -11 75 -4 23 -3 26 4 10 5 -11 12 -47 16 -80z m115
61 c0 -3 -4 -8 -10 -11 -5 -3 -10 -1 -10 4 0 6 5 11 10 11 6 0 10 -2 10 -4z
m207 -46 c-7 -17 -13 -26 -15 -21 -3 10 15 51 22 51 3 0 -1 -14 -7 -30z m-220
-77 c-2 -21 -4 -6 -4 32 0 39 2 55 4 38 2 -18 2 -50 0 -70z m107 28 c-4 -23
-9 -40 -11 -37 -3 3 -2 23 2 46 4 23 9 39 11 37 3 -2 2 -23 -2 -46z m87 -18
c-12 -20 -14 -14 -5 12 4 9 9 14 11 11 3 -2 0 -13 -6 -23z m-283 -54 c-3 -20
-5 -19 -9 9 -3 20 -2 29 4 23 5 -5 7 -19 5 -32z m-222 -171 l29 -33 -32 29
c-31 28 -38 36 -30 36 2 0 16 -15 33 -32z m-101 -43 l20 -16 -20 10 c-11 5
-29 17 -40 26 l-20 16 20 -10 c11 -5 29 -17 40 -26z m84 -52 c2 -2 0 -3 -6 -3
-6 0 -21 9 -34 21 l-24 20 30 -17 c17 -10 32 -19 34 -21z m-56 -69 c26 -9 49
-20 52 -24 3 -4 -16 0 -43 10 -26 9 -54 20 -62 23 -36 13 11 5 53 -9z m687
-144 c-34 -11 -60 -11 -35 0 11 5 29 8 40 8 16 0 15 -2 -5 -8z m84 -2 c-3 -4
-14 -6 -24 -5 -31 5 -32 13 -1 12 16 0 27 -3 25 -7z m-144 -11 c0 -2 -10 -12
-22 -23 l-23 -19 19 23 c18 21 26 27 26 19z m-574 -52 c-11 -8 -25 -15 -30
-15 -6 1 0 7 14 15 32 19 40 18 16 0z m524 -15 c-6 -11 -13 -20 -16 -20 -2 0
0 9 6 20 6 11 13 20 16 20 2 0 0 -9 -6 -20z m607 -4 c2 -2 -10 -3 -28 -2 -18
1 -34 7 -36 13 -3 9 4 10 28 3 17 -5 34 -11 36 -14z m-1177 0 c0 -2 -12 -11
-27 -20 l-28 -17 24 20 c23 21 31 25 31 17z m595 -26 c-10 -11 -22 -20 -28
-20 -5 0 1 9 14 20 31 25 37 25 14 0z m665 -66 c0 -12 -4 -12 -20 -4 -11 6
-18 15 -15 20 8 13 35 0 35 -16z m-1500 -37 c0 -2 -10 -12 -22 -23 l-23 -19
19 23 c18 21 26 27 26 19z m235 -35 c-3 -3 -11 0 -18 7 -9 10 -8 11 6 5 10 -3
15 -9 12 -12z m65 -22 c19 -11 31 -19 25 -19 -5 0 -26 8 -45 19 -19 11 -30 19
-25 19 6 0 26 -8 45 -19z m1015 8 c-16 -6 -35 -15 -42 -20 -18 -15 -124 -21
-153 -10 -20 8 -13 9 30 5 40 -4 70 0 110 15 30 11 62 20 70 20 8 0 2 -4 -15
-10z m-248 -4 c-3 -3 -12 -4 -19 -1 -8 3 -5 6 6 6 11 1 17 -2 13 -5z m392 -64
c0 -9 -4 -8 -9 5 -5 11 -9 27 -9 35 0 9 4 8 9 -5 5 -11 9 -27 9 -35z m-1344
-30 c28 -10 45 -19 38 -19 -6 -1 -24 4 -40 10 -15 6 -46 14 -68 19 -34 7 -36
8 -10 8 17 0 53 -8 80 -18z m1677 -259 c2 -17 1 -28 -4 -25 -8 5 -12 54 -4 54
2 0 6 -13 8 -29z m105 -113 c-3 -8 -6 -5 -6 6 -1 11 2 17 5 13 3 -3 4 -12 1
-19z m-90 -53 c19 -19 46 -38 61 -41 45 -10 48 -12 17 -13 -34 -1 -74 22 -105
62 -30 38 -13 34 27 -8z m-2560 -257 c-5 -24 -10 -67 -10 -97 0 -45 -2 -50
-10 -30 -15 40 -15 52 -1 88 8 18 15 46 16 61 1 16 5 27 9 25 3 -3 2 -24 -4
-47z m199 -47 c-9 -14 -126 -71 -126 -61 0 4 26 20 58 36 31 16 59 33 61 37 1
5 5 6 8 3 3 -2 2 -9 -1 -15z m-195 -191 c0 -8 2 -23 4 -33 2 -9 -1 -15 -6 -11
-5 3 -9 15 -9 26 0 11 -9 37 -21 57 l-21 36 26 -30 c14 -16 26 -37 27 -45z
m99 0 c-8 -5 -19 -10 -25 -10 -5 0 -3 5 5 10 8 5 20 10 25 10 6 0 3 -5 -5 -10z
m-80 -214 c0 -2 -12 -11 -27 -20 l-28 -17 24 20 c23 21 31 25 31 17z m-60 -40
c0 -2 -12 -11 -27 -20 l-28 -17 24 20 c23 21 31 25 31 17z m-107 -152 c21 -28
33 -84 19 -84 -5 0 -18 21 -28 47 -11 27 -20 51 -22 55 -8 18 15 5 31 -18z
m3374 -116 c-3 -8 -6 -5 -6 6 -1 11 2 17 5 13 3 -3 4 -12 1 -19z m-26 -71
c-10 -9 -11 -8 -5 6 3 10 9 15 12 12 3 -3 0 -11 -7 -18z m-3406 -17 c10 -11
14 -20 9 -20 -5 0 -15 9 -22 20 -7 11 -11 20 -9 20 2 0 12 -9 22 -20z m-35
-25 c13 -14 21 -25 18 -25 -2 0 -15 11 -28 25 -13 14 -21 25 -18 25 2 0 15
-11 28 -25z m3408 5 c-7 -10 -14 -17 -17 -15 -4 4 18 35 25 35 2 0 -1 -9 -8
-20z m-3235 -101 c-4 -4 -6 15 -3 44 l5 52 3 -44 c2 -24 0 -47 -5 -52z m-112
19 c15 -28 5 -21 -21 15 -15 20 -17 27 -6 18 9 -8 22 -23 27 -33z m3214 -9 c3
-24 14 -57 26 -74 l22 -30 -28 27 c-22 20 -28 37 -31 79 -5 63 5 61 11 -2z
m116 -36 c-12 -20 -14 -14 -5 12 4 9 9 14 11 11 3 -2 0 -13 -6 -23z m-3231
-105 c-1 -14 -50 -54 -50 -40 0 9 38 52 45 52 3 0 5 -6 5 -12z m3151 -25 l24
-27 -24 15 c-14 9 -27 21 -29 27 -6 19 3 14 29 -15z m-36 -53 c3 -5 1 -10 -4
-10 -6 0 -11 5 -11 10 0 6 2 10 4 10 3 0 8 -4 11 -10z m3 -57 c2 -15 8 -36 13
-47 10 -21 10 -21 -5 -2 -9 11 -16 27 -17 35 0 9 -2 24 -4 34 -2 11 -1 16 3
13 3 -4 8 -19 10 -33z m-3243 -141 c-3 -3 -11 0 -18 7 -9 10 -8 11 6 5 10 -3
15 -9 12 -12z m3247 -57 c0 -20 -3 -39 -6 -42 -3 -4 -6 15 -6 42 0 27 3 46 6
42 3 -3 6 -22 6 -42z m117 -40 c-21 -35 -29 -42 -29 -26 0 9 39 61 45 61 3 0
-5 -16 -16 -35z m-122 -37 c-3 -8 -6 -5 -6 6 -1 11 2 17 5 13 3 -3 4 -12 1
-19z m95 -80 c-7 -7 -12 -8 -12 -2 0 14 12 26 19 19 2 -3 -1 -11 -7 -17z
m-100 -70 c2 -21 0 -38 -4 -38 -4 0 -8 21 -7 48 1 52 6 48 11 -10z m120 29
c-12 -13 -22 -29 -22 -35 0 -7 -5 -12 -11 -12 -5 0 -7 6 -3 13 10 17 46 57 52
57 3 0 -4 -10 -16 -23z m-83 -153 c7 -10 2 -6 -13 9 -14 15 -26 36 -25 45 0
12 4 9 12 -9 7 -14 18 -35 26 -45z m64 -39 c-3 -9 -8 -14 -10 -11 -3 3 -2 9 2
15 9 16 15 13 8 -4z m-3293 -42 c0 -7 -39 17 -46 28 -3 6 5 3 20 -6 14 -10 26
-19 26 -22z m3151 -6 c-10 -9 -11 -8 -5 6 3 10 9 15 12 12 3 -3 0 -11 -7 -18z
m12 -44 c3 -16 9 -37 12 -48 6 -19 6 -19 -5 -2 -17 26 -30 77 -21 77 5 0 11
-12 14 -27z m-3011 -87 c-15 -30 -28 -51 -30 -47 -4 12 42 110 49 105 4 -2 -5
-28 -19 -58z m3012 -66 c4 -14 -6 -2 -23 27 -17 29 -31 60 -31 70 1 20 43 -56
54 -97z m-201 -365 c9 -25 14 -45 12 -45 -6 0 -35 69 -35 81 0 20 9 6 23 -36z
m97 21 c0 -2 -6 -9 -14 -15 -11 -9 -16 -9 -22 0 -4 7 -3 9 4 5 6 -3 13 -2 17
4 6 10 15 14 15 6z m-162 -81 c-6 -14 -13 -23 -15 -21 -5 5 15 46 22 46 3 0
-1 -11 -7 -25z m-20 -77 c-1 -34 -2 -38 -7 -18 -6 22 -4 60 4 60 1 0 3 -19 3
-42z m-30 -163 c0 -19 -5 -7 -13 30 -17 75 -17 92 0 40 8 -22 13 -53 13 -70z
m-123 -122 c4 -21 9 -48 11 -60 3 -14 -1 -23 -7 -23 -7 0 -10 2 -7 5 3 3 0 30
-7 60 -7 30 -10 55 -5 55 4 0 11 -17 15 -37z m61 -28 c-11 -8 -22 -12 -25 -9
-6 6 19 24 34 24 6 -1 1 -7 -9 -15z m-1881 -200 c104 -83 252 -168 358 -205
39 -14 51 -23 49 -37 -2 -10 -6 -39 -9 -64 l-5 -46 -57 21 c-104 37 -269 126
-320 172 -52 46 -63 71 -76 162 -7 49 -6 49 60 -3z m1521 -40 c-4 -30 -10 -65
-15 -78 -19 -49 -149 -130 -308 -191 -107 -42 -117 -43 -110 -16 5 19 -1 51
-17 91 -6 13 9 22 71 44 97 34 253 113 324 164 30 22 55 40 57 40 2 1 1 -24
-2 -54z m-558 -736 c17 -12 32 -23 32 -25 0 -10 -65 30 -89 54 l-26 25 25 -17
c14 -9 40 -26 58 -37z"/>
</g>
</svg>
